<svg width="29" height="29" viewBox="0 0 29 29" fill="none" xmlns="http://www.w3.org/2000/svg">
<path d="M4.83063 0C7.33427 2.07685 9.78309 4.20372 12.2461 6.31162C12.6949 6.74976 13.2289 7.11373 13.6878 7.54497C13.8868 7.73644 14.1122 7.90893 14.3193 8.09523C14.3091 10.605 14.3173 13.1131 14.3152 15.6229C14.3233 16.9374 14.2969 18.2518 14.3315 19.5645C11.1537 16.8839 7.99419 14.1861 4.83672 11.4882C4.83672 7.65881 4.85093 3.82941 4.83063 0Z" fill="black"/>
<path d="M17.7204 2.34595C19.4545 0.912508 21.881 0.134552 24.2871 0.0983276C24.2932 3.82769 24.2811 7.55705 24.2973 11.2864C23.6536 11.3347 23.012 11.4037 22.3785 11.5176C19.9195 12.0161 17.6534 13.2908 16.293 15.1193C15.5802 16.0835 15.1051 17.1754 14.9284 18.3035C14.8817 18.6278 14.8757 18.9607 14.7741 19.2764C14.8046 18.3242 14.831 17.3721 14.8168 16.4216C14.8168 13.7893 14.8127 11.1553 14.8188 8.52302C14.7355 6.2478 15.7244 3.89841 17.7204 2.34595Z" fill="black"/>
<path d="M0.00406369 8.09177C1.42949 8.08487 2.85696 8.08832 4.28239 8.09005C4.27426 9.23887 4.28645 10.3894 4.27629 11.5382C7.2368 14.0532 10.1953 16.5682 13.1558 19.0832C13.4847 19.354 13.7974 19.6369 14.1142 19.9164C11.8258 19.9008 9.53739 19.9215 7.24899 19.906C4.83266 19.8939 2.41836 19.9198 0.00406369 19.9112C-0.00405842 15.9714 2.63745e-06 12.0299 0.00406369 8.09177Z" fill="black"/>
<path d="M24.7196 8.09006C26.1451 8.08489 27.5705 8.08489 28.998 8.09006C29 12.0299 29.0041 15.9697 28.9959 19.9112C24.4049 19.9181 19.8139 19.8922 15.2229 19.8991C15.229 19.7059 15.2554 19.5145 15.2655 19.323C15.2493 18.7193 15.3934 18.1224 15.5681 17.5411C16.1061 15.7178 17.4361 14.0584 19.29 13.0252C20.5185 12.2938 21.9784 11.8884 23.4587 11.7228C23.881 11.6866 24.3075 11.6987 24.7278 11.64C24.7217 10.4567 24.7054 9.27338 24.7196 8.09006Z" fill="black"/>
<path d="M4.27223 20.2596C11.0907 20.2614 17.9093 20.2614 24.7298 20.2596C24.6953 23.1731 24.7115 26.0866 24.7196 29C23.3978 27.8909 22.0921 26.7679 20.7926 25.6398C18.691 23.8769 16.63 22.0795 14.5183 20.3252C14.5812 21.5137 14.2056 22.6849 13.6919 23.7786C12.6339 25.833 10.6034 27.5096 8.15054 28.3428C6.92004 28.7516 5.6002 29.0052 4.27223 28.9586C4.28035 26.059 4.28238 23.1593 4.27223 20.2596Z" fill="black"/>
</svg>
