<svg width="29" height="29" viewBox="0 0 29 29" fill="none" xmlns="http://www.w3.org/2000/svg">
<path fill-rule="evenodd" clip-rule="evenodd" d="M14.5143 1.82762C15.797 0.722404 17.3068 -0.0873515 19.2132 0.0531223C21.0343 0.187211 22.6083 1.19433 24.4772 1.20158C26.171 1.20797 27.5766 0.547393 28.9978 0.0531223C28.9978 0.911347 28.9978 1.76986 28.9978 2.62809C27.5689 3.19172 25.9401 3.82008 24.061 3.63724C21.4337 3.38125 19.0343 1.64332 16.4177 2.90642C16.0637 3.07708 15.7464 3.30782 15.3768 3.60212C15.1372 3.79309 14.6036 4.14631 14.5143 4.50678C14.3947 4.9906 14.6036 5.56294 14.5143 6.0726C15.4413 5.18651 16.5078 4.10074 18.1425 4.0543C20.0423 4.00061 21.6212 4.97522 23.4661 5.2373C25.506 5.52725 27.1881 4.91485 28.968 4.4023C29.006 5.08261 29.0144 6.01397 28.968 6.73375C27.4154 7.35631 25.4936 8.02443 23.4363 7.67324C21.5227 7.34644 20.0321 6.34165 17.8749 6.5599C16.9091 6.65742 15.83 7.22454 15.1687 7.84738C14.9851 8.02007 14.5795 8.33672 14.5143 8.5782C14.3868 9.04896 14.5594 9.53075 14.5143 10.0744C15.2406 9.54033 15.8655 8.79732 16.7447 8.43917C19.4759 7.32612 22.1709 9.65381 25.1019 9.41349C26.4943 9.29914 27.7111 8.83941 28.968 8.474C28.9846 9.18247 28.9668 9.94782 28.968 10.7706C27.2194 11.4475 24.9027 12.1948 22.7226 11.5363C20.6709 10.9163 18.5161 10.0999 16.5961 10.9099C16.2401 11.06 15.7891 11.3282 15.4361 11.6059C15.1821 11.8059 14.6378 12.2175 14.5143 12.58C14.3895 12.9457 14.5217 13.6599 14.5143 14.1806C15.5899 13.1247 16.6266 12.0604 18.7372 12.1974C20.4111 12.306 21.9777 13.199 23.7633 13.3804C25.6238 13.5694 27.2122 13.0171 28.9678 12.5106C28.9678 13.2876 28.9678 14.0645 28.9678 14.8418C27.8899 15.2809 26.662 15.7319 25.28 15.8506C22.4488 16.0944 20.359 14.1185 17.3393 14.7721C16.4787 14.9584 15.6772 15.4623 15.0494 16.0596C14.869 16.2311 14.5329 16.5132 14.4843 16.7207C14.3736 17.1935 14.5473 17.9145 14.514 18.2866C15.3967 17.3889 16.3145 16.5048 17.6963 16.3034C19.5369 16.0349 21.2754 17.0487 23.228 17.3819C25.2931 17.7345 27.1904 17.1506 28.9678 16.6165C28.9678 17.3935 28.9678 18.1708 28.9678 18.9477C27.4751 19.4783 25.8761 20.0991 24.0607 19.9569C21.7882 19.7787 19.9582 18.3748 17.5477 18.8087C16.6437 18.9715 15.7256 19.4759 15.0791 20.0962C14.932 20.2372 14.5339 20.5913 14.4845 20.7922C14.3625 21.2893 14.582 21.8974 14.4845 22.358C15.3639 21.5343 16.3006 20.5777 17.756 20.3748C18.5652 20.2619 19.4275 20.4227 20.2541 20.6183C21.6309 20.9437 23.0218 21.6057 24.5665 21.5926C26.1237 21.5793 27.4764 21.1201 28.968 20.688C28.9482 21.442 29.0077 22.2886 28.9382 22.9846C27.0904 23.925 24.861 24.3281 22.6333 23.7848C20.679 23.3082 18.5265 22.2332 16.4177 23.2629C15.6462 23.6394 15.0471 24.1795 14.4845 24.8636C14.4845 25.397 14.4845 25.9305 14.4845 26.4642C15.4944 25.4757 16.542 24.4506 18.2616 24.4462C20.1891 24.4413 21.7299 25.3915 23.6149 25.6292C25.5129 25.8684 27.168 25.3163 28.9382 24.7942C28.9745 25.4528 28.9698 26.4184 28.9382 27.1602C27.5322 27.7125 26.3559 28.2483 24.6261 28.2387C22.0568 28.2248 19.4848 25.7404 17.0719 27.5079C16.8709 27.6551 16.5981 27.9505 16.3879 28.2036C16.1843 28.4491 15.9898 28.8372 15.7335 28.9344C15.4009 29.0604 14.9541 28.9692 14.5143 28.9692C14.1047 28.9692 13.5099 29.0238 13.2355 28.9344C12.8358 28.8044 12.6523 28.257 12.3432 27.9253C11.7473 27.2862 10.8389 26.771 9.69629 26.8119C8.10592 26.8688 6.62544 27.9317 4.93783 28.1691C3.17778 28.4166 1.51622 27.7639 0.00101171 27.1251C-0.00791877 17.7154 0.0315242 9.99774 0.03078 0.0542832C1.64025 0.624885 3.15744 1.2962 4.9676 1.16762C5.78945 1.10929 6.54333 0.813828 7.31706 0.576126C8.16173 0.316656 8.98557 0.0862091 9.81511 0.019455C11.8944 -0.149462 13.2454 0.864329 14.5143 1.82762Z" fill="black"/>
</svg>
